<?xml version="1.0" standalone="no"?>
<!DOCTYPE svg PUBLIC "-//W3C//DTD SVG 20010904//EN"
 "http://www.w3.org/TR/2001/REC-SVG-20010904/DTD/svg10.dtd">
<svg version="1.0" xmlns="http://www.w3.org/2000/svg"
 width="512.000000pt" height="512.000000pt" viewBox="0 0 512.000000 512.000000"
 preserveAspectRatio="xMidYMid meet">

<g transform="translate(0.000000,512.000000) scale(0.100000,-0.100000)"
fill="#000000" stroke="none">
<path d="M890 4055 l0 -165 172 -2 171 -3 191 -401 c105 -220 239 -503 299
-628 l108 -227 -67 -122 c-193 -351 -209 -393 -193 -498 17 -109 94 -209 197
-257 l57 -27 1033 -3 1032 -2 0 170 0 170 -975 0 c-1130 0 -1022 -13 -955 111
22 41 57 106 77 146 l37 72 660 4 c726 3 696 1 783 66 53 40 75 74 210 321 50
91 177 323 283 515 107 193 199 369 206 391 22 75 -23 168 -94 195 -13 5 -568
9 -1273 9 l-1250 0 -79 165 -79 165 -276 0 -275 0 0 -165z"/>
<path d="M1784 1540 c-91 -36 -177 -130 -205 -222 -5 -18 -10 -63 -10 -100 0
-126 88 -253 208 -298 76 -29 187 -25 256 9 66 32 134 101 165 169 72 157 -10
361 -176 434 -68 31 -173 34 -238 8z"/>
<path d="M3480 1551 c-98 -32 -206 -134 -235 -221 -24 -72 -17 -179 15 -244
33 -66 116 -139 188 -166 157 -60 343 19 414 175 34 74 32 190 -3 265 -31 65
-104 141 -167 171 -48 24 -167 35 -212 20z"/>
</g>
</svg>
